# 3ds Max Wavefront OBJ Exporter v0.97b - (c)2007 guruware
# File Created: 13.12.2017 21:44:34

mtllib test.mtl

#
# object Box001
#

v  -30.3208 0.0000 19.3742
v  -30.3208 0.0000 -20.6258
v  9.6792 0.0000 -20.6258
v  9.6792 0.0000 19.3742
v  -30.3208 55.8826 19.3742
v  9.6792 55.8826 19.3742
v  9.6792 55.8826 -20.6258
v  -30.3208 55.8826 -20.6258
v  9.6792 37.3904 19.3742
v  -30.3208 37.3904 19.3742
v  9.6792 37.3904 -20.6258
v  -30.3208 37.3904 -20.6258
v  9.6792 51.3610 19.3742
v  -30.3208 51.3610 19.3742
v  9.6792 51.3610 -20.6258
v  -12.6486 46.6605 -46.2811
v  -7.9931 46.6605 -46.2811
v  -7.9931 42.0909 -46.2811
v  -12.6486 42.0909 -46.2811
v  -30.3208 51.3610 -20.6258
v  9.6792 37.3904 -44.5366
v  9.6792 51.3610 -44.5366
v  -30.3208 37.3904 -44.5366
v  -30.3208 51.3610 -44.5366
v  -28.4161 40.6647 -22.5305
v  7.7744 40.6647 -22.5305
v  7.7744 40.6647 -42.6318
v  -28.4161 40.6647 -42.6318
v  7.7744 51.3610 -22.5305
v  -28.4161 51.3610 -22.5305
v  7.7744 51.3610 -42.6318
v  -28.4161 51.3610 -42.6318
v  -7.9931 42.0909 -44.5366
v  -7.9931 46.6605 -44.5366
v  -12.6486 42.0909 -44.5366
v  -12.6486 46.6605 -44.5366
# 36 vertices

vn 0.0000 -1.0000 -0.0000
vn 0.0000 1.0000 -0.0000
vn 0.0000 0.0000 1.0000
vn 1.0000 0.0000 -0.0000
vn 0.0000 0.0000 -1.0000
vn -1.0000 0.0000 -0.0000
# 6 vertex normals

vt 1.0000 0.0000 0.0000
vt 1.0000 1.0000 0.0000
vt 0.0000 1.0000 0.0000
vt 0.0000 0.0000 0.0000
vt 1.0000 0.5000 0.0000
vt 0.0000 0.5000 0.0000
vt 1.0000 0.7500 0.0000
vt 0.0000 0.7500 0.0000
# 8 texture coords

g Box001
usemtl Material__47
s 2
f 1/1/1 2/2/1 3/3/1 4/4/1 
s 4
f 5/4/2 6/1/2 7/2/2 8/3/2 
s 8
f 4/1/3 9/5/3 10/6/3 1/4/3 
s 16
f 3/1/4 11/5/4 9/6/4 4/4/4 
s 32
f 2/1/5 12/5/5 11/6/5 3/4/5 
s 64
f 1/1/6 10/5/6 12/6/6 2/4/6 
s 8
f 13/7/3 14/8/3 10/6/3 9/5/3 
s 16
f 15/7/4 13/8/4 9/6/4 11/5/4 
s 32
f 16/7/5 17/8/5 18/6/5 19/5/5 
s 64
f 14/7/6 20/8/6 12/6/6 10/5/6 
s 8
f 6/2/3 5/3/3 14/8/3 13/7/3 
s 16
f 7/2/4 6/3/4 13/8/4 15/7/4 
s 32
f 8/2/5 7/3/5 15/8/5 20/7/5 
s 64
f 5/2/6 8/3/6 20/8/6 14/7/6 
s off
f 15/8/4 11/6/4 21/6/4 22/8/4 
f 11/6/1 12/5/1 23/5/1 21/6/1 
f 12/5/6 20/7/6 24/7/6 23/5/6 
f 25/7/2 26/8/2 27/8/2 28/7/2 
f 20/7/2 15/8/2 29/8/2 30/7/2 
f 15/8/2 22/8/2 31/8/2 29/8/2 
f 22/8/2 24/7/2 32/7/2 31/8/2 
f 24/7/2 20/7/2 30/7/2 32/7/2 
f 30/7/5 29/8/5 26/8/5 25/7/5 
f 29/8/6 31/8/6 27/8/6 26/8/6 
f 31/8/3 32/7/3 28/7/3 27/8/3 
f 32/7/4 30/7/4 25/7/4 28/7/4 
f 22/8/5 21/6/5 33/6/5 34/8/5 
f 21/6/5 23/5/5 35/5/5 33/6/5 
f 23/5/5 24/7/5 36/7/5 35/5/5 
f 24/7/5 22/8/5 34/8/5 36/7/5 
f 34/8/4 33/6/4 18/6/4 17/8/4 
f 33/6/1 35/5/1 19/5/1 18/6/1 
f 35/5/6 36/7/6 16/7/6 19/5/6 
f 36/7/2 34/8/2 17/8/2 16/7/2 
# 34 polygons

